<?xml version="1.0" standalone="yes"?><svg xmlns:svg="http://www.w3.org/2000/svg" xmlns="http://www.w3.org/2000/svg" height="1024px" style="zoom: 1;" cursor="default" width="1024px" version="1.1" visibility="visible"><path d="M981.374878,737.241089 C791.641846,736.542725 165.877197,736.542725 35.394165,737.241089 C-5.502716,737.468262 -5.023071,547.962524 35.394165,541.575439 C166.861694,520.773682 543.146851,541.575439 543.146851,541.575439 C543.146851,541.575439 678.653687,678.647461 718.473389,678.824219 C758.831787,679.000854 853.635132,541.575439 853.635132,541.575439 C853.635132,541.575439 961.591187,521.825439 981.383301,541.575439 C1013.999756,574.141602 1022.339111,737.409424 981.374878,737.241089 M935.243774,918.904053 L935.243774,918.904053 C774.76123,940.185669 231.758118,934.934692 68.658569,918.904053 C32.246887,915.319336 55.716309,804.460205 55.716309,804.460205 H965.058105 C965.06665,804.460205 980.987793,912.828491 935.243774,918.904053 M491.058044,86.408081 C259.881104,55.112732 68.65863,248.127563 68.65863,434.730225 L932.44165,443.557495 C932.44165,256.946472 720.408936,117.467834 491.058044,86.408081 M214.810303,329.382812 C196.776978,329.382812 182.185364,314.76593 182.185364,296.766235 C182.185364,278.73291 196.776978,264.141296 214.810303,264.141296 C232.835327,264.141296 247.42688,278.73291 247.42688,296.766235 C247.42688,314.765991 232.835327,329.382812 214.810364,329.382812 M280.043396,378.433838 C271.030945,378.433838 263.735107,371.121216 263.735107,362.125549 C263.735107,353.113037 271.030945,345.817261 280.043396,345.817261 C289.055847,345.817261 296.351685,353.113037 296.351685,362.125549 C296.351685,371.121216 289.064331,378.433838 280.043396,378.433838 M296.351685,247.841431 C278.326782,247.841431 263.735107,233.216187 263.735107,215.216431 C263.735107,197.183105 278.326782,182.599976 296.351685,182.599976 C314.38501,182.599976 328.976624,197.183105 328.976624,215.216431 C328.976624,233.216187 314.38501,247.841431 296.351685,247.841431 M361.59314,345.699463 C343.568237,345.699463 328.976624,331.082642 328.976624,313.082947 C328.976624,295.049561 343.568237,280.46637 361.59314,280.46637 C379.626526,280.46637 394.209717,295.057983 394.209717,313.082947 C394.21814,331.082642 379.626526,345.699463 361.59314,345.699463 M426.834717,215.216492 C408.801331,215.216431 394.21814,200.599609 394.21814,182.599976 C394.21814,164.566589 408.809692,149.974976 426.834717,149.974976 C444.859619,149.974976 459.451172,164.566589 459.451172,182.599976 C459.459656,200.599609 444.868042,215.216431 426.834717,215.216431 M475.767944,313.192322 C466.74707,313.192322 459.459656,305.8797 459.459656,296.884033 C459.459656,287.871582 466.755432,280.575806 475.767944,280.575806 C484.780396,280.575806 492.076172,287.871582 492.076172,296.884033 C492.076172,305.8797 484.780396,313.192322 475.767944,313.192322  z " visibility="visible" fill="#33CC00"></path></svg>